<svg width="107" height="100" viewBox="0 0 107 100" fill="none" xmlns="http://www.w3.org/2000/svg">
<path d="M45.19 27.36L40.991 23.16L53.3482 0L45.19 27.36Z" fill="#010101"/>
<path d="M53.3481 0L45.1899 27.36L53.3481 35.52L61.5063 27.36L53.3481 0Z" fill="#333333"/>
<path d="M61.5063 27.36L65.7054 23.16L53.3481 0L61.5063 27.36Z" fill="#4E4E4E"/>
<path d="M0 100H23.4748L44.4702 29.68L39.9512 25.16L0 100Z" fill="#CE5E05"/>
<path d="M62.2263 29.68L53.3483 38.56L44.4702 29.68L23.4749 100H29.7135L40.2711 82.72L53.3483 100L66.4254 82.72L76.983 100H83.2616L62.2263 29.68Z" fill="#DC6D01"/>
<path d="M106.696 100H83.2617L62.2263 29.68L66.7853 25.16L106.696 100Z" fill="#EB8B01"/>
</svg>
