<svg width="437" height="222" viewBox="0 0 437 222" fill="none" xmlns="http://www.w3.org/2000/svg">
<path d="M51.5947 216.765H0.362549V0H54.5679L167.29 169.168H144.859V0H196.091V216.765H141.928L29.2053 47.597H51.637L51.5947 216.765Z" fill="white"/>
<path d="M436.626 1.52588e-05V131.265C436.626 159.775 428.087 181.957 411.01 197.814C393.933 213.67 370.336 221.603 340.22 221.612C310.302 221.612 286.757 213.679 269.586 197.814C252.414 181.948 243.824 159.765 243.815 131.265V1.52588e-05H295.949V131.265C295.949 144.219 299.889 154.881 307.77 163.25C315.652 171.62 326.454 175.814 340.178 175.833C354.127 175.833 365.043 171.639 372.924 163.25C380.805 154.862 384.746 144.2 384.746 131.265V1.52588e-05H436.626Z" fill="white"/>
</svg>
