<svg width="1920" height="598" viewBox="0 0 1920 598" fill="none" xmlns="http://www.w3.org/2000/svg">
<path d="M1920 229.628L1914.47 229.426C1911.91 229.339 1909.36 229.012 1906.86 228.451C1905.36 227.975 1903.82 227.659 1902.25 227.51L1900.68 227.387L1897.57 227.174C1896.69 227.106 1894.45 226.972 1892.58 226.871C1890.71 226.77 1884.46 226.681 1881.88 226.681C1881.88 226.681 1859.71 226.681 1846.42 222.814C1838.11 220.494 1824.81 214.319 1809.86 212.01C1808.35 211.809 1806.72 211.596 1804.73 211.36L1803.33 211.663C1801.96 212.076 1800.64 212.624 1799.39 213.299C1796.9 214.588 1792.85 216.661 1790.36 217.872L1785.96 219.979C1783.47 221.189 1780.26 222.937 1778.81 223.868C1777.37 224.798 1771.53 226.187 1768.95 226.512L1761.11 227.465C1758.53 227.79 1754.3 228.238 1751.71 228.474C1750.8 228.629 1749.95 229.015 1749.23 229.594C1747.95 230.319 1746.53 230.773 1745.07 230.928C1742.48 231.208 1738.25 231.41 1735.65 231.387C1732.96 231.246 1730.28 230.939 1727.63 230.469C1726.55 230.27 1725.49 229.947 1724.48 229.505C1723.36 229.079 1718.29 226.501 1715.79 225.302L1713.86 224.361C1711.37 223.15 1708.09 221.413 1706.56 220.494C1705.04 219.575 1700.16 215.731 1697.77 214.028L1686.57 206.026C1683.84 204.001 1681.28 201.752 1678.92 199.302L1678.26 198.988C1677.47 198.705 1676.66 198.488 1675.84 198.338C1672.74 197.77 1669.61 197.362 1666.47 197.116L1662.9 196.87C1660.23 196.696 1657.54 196.756 1654.87 197.049C1651.34 197.273 1647.8 197.273 1644.27 197.049C1644.27 197.049 1641.1 196.825 1635.22 194.012C1629.62 191.345 1623.94 188.677 1617.11 190.045C1615.53 190.381 1596.32 209.556 1594.71 209.915C1576.7 213.893 1569.24 190.863 1560.08 179.073C1539.09 153.566 1534.32 140.969 1509.68 119.597C1508.98 118.992 1508.24 118.375 1507.44 117.781C1503.26 114.419 1499.3 111.64 1495.74 108.726C1494.88 108.062 1493.95 107.48 1492.98 106.989C1491.95 106.417 1486.84 104.277 1484.61 103.055C1482.38 101.834 1479.48 100.321 1478.16 99.6932C1476.84 99.0656 1475.15 92.756 1474.7 88.4189C1474.7 88.4189 1474.25 83.9361 1464.4 77.9739C1463.28 77.2567 1462.09 76.6066 1460.96 75.9566C1456.35 73.3342 1456.1 73.1437 1456.1 73.1437C1453.72 71.3842 1450.77 69.21 1449.51 68.3246C1448.26 67.4392 1447.27 66.6996 1446.15 65.9711L1445.13 65.2875C1442.83 63.8245 1440.62 62.2382 1438.49 60.5357C1436.18 58.5072 1433.33 56.0529 1432.14 55.0667C1431.07 54.139 1429.95 53.2782 1428.78 52.489L1427.66 51.7606C1424.32 49.5714 1421.04 47.33 1417.83 45.0363C1399.55 31.1283 1384.07 9.53233 1384.07 9.53233C1382.07 6.74177 1379.59 3.58137 1378.72 2.52791C1377.96 1.51199 1376.99 0.683611 1375.86 0.107178L1374.44 0.0175368C1372.9 -0.0433176 1371.36 0.0543021 1369.85 0.308897C1361.32 1.5865 1355.68 2.55031 1355.68 2.55031C1353.1 2.98739 1349.47 3.52533 1347.63 3.74948C1345.78 3.97362 1341.58 4.26499 1341.5 4.26499L1340.02 5.2176C1339.29 5.6995 1338.59 6.13658 1337.78 6.68572C1336.97 7.23487 1331.87 9.91336 1329.48 11.628L1316.87 20.5937C1314.53 22.2761 1312.02 23.7108 1309.39 24.8748C1307.68 25.5136 1302.84 27.3403 1301.55 27.7998L1297.53 28.4499C1295.89 28.674 1294.27 28.8981 1292.64 29.1447L1207.3 41.6854C1204.71 42.0665 1201.25 42.4587 1199.62 42.5708C1198.08 42.7477 1196.52 42.6948 1194.99 42.4139L1193.53 42.0552C1183.28 39.4888 1171.76 37.4491 1171.76 37.4491C1169.19 36.9897 1165.79 36.4181 1164.2 36.1827C1162.78 35.9401 1161.34 35.7754 1159.9 35.6896L1158.63 35.8129C1152.3 36.3845 1147.19 40.8337 1147.19 40.8337C1144.88 42.8397 1141.96 45.2493 1140.68 46.1682C1139.5 47.1129 1138.17 47.8689 1136.75 48.4097L1135.31 48.9476C1129.09 51.2873 1123.04 54.0585 1117.21 57.2408C1114.74 58.6193 1111.51 60.6029 1110.03 61.5331C1108.55 62.4633 1103.66 66.6211 1101.37 68.6832C1101.37 68.6832 1090.85 78.198 1083.06 86.1775C1082.21 87.0628 1081.58 87.8361 1080.82 88.7551C1078.72 91.0318 1076.31 92.9978 1073.66 94.594L1050.14 105.98C1047.75 107.182 1045.27 108.201 1042.73 109.029C1041.43 109.312 1040.17 109.748 1038.98 110.329L1038.04 110.889L1034.29 113.13C1031.81 114.251 1028.37 115.686 1026.67 116.358C1024.97 117.031 1019.06 119.115 1016.52 120.068L994.569 128.271C992.026 129.224 988.521 130.434 986.729 130.972C984.937 131.51 979.684 132.709 978.127 133.158C976.57 133.606 973.961 134.278 972.326 134.626C970.788 134.906 969.286 135.353 967.846 135.959L966.468 136.598C965.079 137.248 964.105 137.808 962.918 138.492C961.73 139.176 956.858 142.684 954.495 144.465C954.495 144.465 944.415 152.019 936.206 158.34C935.276 159.046 934.514 159.64 933.607 160.346C931.119 162.019 928.372 163.268 925.476 164.044L896.961 168.527C894.453 168.925 891.918 169.12 889.379 169.11C887.788 169.031 886.5 168.953 885.19 168.83L884.07 168.482L880.71 167.474C878.951 167.205 876.151 166.835 874.471 166.667C872.872 166.446 871.256 166.379 869.644 166.465L868.009 166.577C858.063 167.283 838.889 166.33 838.889 166.33C835.75 166.216 832.606 166.321 829.481 166.644C829.481 166.644 782.262 172.248 756.267 174.422L755.147 174.512C754.027 174.164 751.193 174.96 748.729 176.305C748.729 176.305 734.169 184.239 724.302 187.758C699.013 196.78 672.973 197.419 647.314 191.311C633.14 187.753 619.364 182.762 606.198 176.417C594.55 170.981 582.589 170.242 570.459 172.124C546.995 175.767 522.299 188.935 498.556 185.147C475.864 181.482 456.6 162.161 434.212 156.928C412.932 151.941 390.05 140.453 368.468 148.836C356.316 153.543 345.206 161.736 332.628 164.235C322.06 166.212 311.325 167.158 300.574 167.059C287.962 167.126 274.903 166.454 262.494 170.544C251.159 174.276 240.307 180.07 229.543 186.425C218.041 193.205 206.023 202.249 193.614 204.905C182.28 207.337 170.262 206.508 159.297 211.708C148.019 217.042 137.2 223.52 125.563 227.05C115.483 230.11 105.481 233.775 95.3902 236.666C74.6814 242.673 51.3519 248.187 30.8335 237.787C20.4063 232.497 10.9648 224.338 0 221.29V488.5H1920V229.628Z" fill="url(#paint0_radial_5_108)"/>
<path d="M1920 597.5V209.995L1871.18 193.208C1868.63 192.089 1861.73 190.276 1859.9 190.635C1857.15 191.339 1854.49 192.36 1851.98 193.678L1784.78 232.231C1782.29 233.538 1779.61 234.455 1776.84 234.95L1775.18 234.625C1774.08 234.381 1772.95 234.261 1771.82 234.267H1771.26C1770.65 234.446 1768.05 235.319 1765.48 236.226L1712.49 244.574C1709.9 244.574 1706.96 244.574 1705.97 244.484H1705.07C1685.08 243.947 1665.57 243.209 1647.3 248.681C1628.36 254.973 1608.73 258.986 1588.84 260.633L1587.91 260.733C1586.85 260.801 1583.88 260.801 1581.29 260.733C1581.29 260.733 1581.1 260.733 1578.47 260.364C1573.75 259.428 1568.86 260.16 1564.62 262.434L1535.5 270.402C1533.42 271.102 1531.28 271.634 1529.11 271.991H1528.23C1517.74 272.439 1507.61 271.242 1499.46 267.761C1471.24 256.291 1416.14 248.077 1416.14 248.077C1412.9 247.447 1409.77 246.314 1406.87 244.719L1396.96 238.956C1394.43 237.49 1391.65 235.98 1391.41 235.856C1391.18 235.733 1389.17 234.737 1387.07 233.518L1385.06 232.779L1384.4 232.533C1382.41 232.194 1380.39 232.048 1378.37 232.096C1376.09 232.069 1373.82 231.871 1371.57 231.503L1370.95 231.402C1368.98 230.594 1367.06 229.663 1365.21 228.616L1352.21 222.148C1350.16 221.063 1348.03 220.124 1345.84 219.339L1344.95 219.137C1332.5 216.44 1319.49 216.53 1306.62 218.298L1305.76 218.421C1303.6 218.412 1301.45 218.118 1299.37 217.548C1299.37 217.548 1291.15 215.534 1286.5 215.568H1285.85C1285.16 215.657 1282.49 216.384 1279.92 217.168L1269.04 224.487C1266.54 226.176 1263.95 227.844 1263.25 228.202L1262.6 228.526C1258.12 230.765 1253.25 233.148 1253.25 233.148C1250.71 234.368 1248.09 235.644 1247.4 235.991L1246.78 236.349C1240.44 239.919 1230.04 245.066 1230.04 245.066C1227.06 246.471 1223.94 247.595 1220.75 248.424L1214.87 249.856L1213.98 250.057C1213.08 250.239 1212.16 250.292 1211.24 250.214C1210.98 250.214 1208.66 250.214 1206.08 250.281C1202.93 250.411 1199.81 250.812 1196.74 251.479L1196.1 251.647C1194.13 252.622 1192.21 253.701 1190.35 254.881C1185.7 257.702 1180.83 260.145 1175.79 262.188L1175.09 262.446C1174.31 262.737 1171.6 264.113 1169.07 265.478C1167.48 266.174 1165.75 266.496 1164.02 266.418C1157.08 266.355 1150.15 267.057 1143.36 268.511L1142.53 268.701C1140.38 269.556 1138.3 270.589 1136.32 271.79L1125.42 281.996C1122.9 283.585 1120.63 285.476 1120.34 286.17L1120.07 286.785C1118.45 290.422 1114.25 291.687 1114.25 291.687C1111.68 292.459 1109.17 293.601 1108.65 294.227L1108.24 294.843L1107.12 296.689C1106.17 298.928 1105.14 301.322 1105.04 301.524C1104.94 301.725 1102.88 303.762 1100.46 306C1100.46 306 1090.96 314.874 1082.66 319.966L1080.42 321.264C1050.01 339.169 1018.24 358.395 980.742 359.85H979.824C977.594 359.65 975.388 359.234 973.238 358.608C970.815 357.886 968.571 356.662 966.653 355.016C962.027 350.83 956.125 352.99 956.125 352.99C954.146 353.744 952.097 354.302 950.01 354.657C948.18 354.125 946.385 353.483 944.633 352.733L911.862 343.198C909.785 342.905 907.728 342.486 905.702 341.945C905.299 341.766 902.936 340.244 900.438 338.588L834.907 318.993C832.331 318.131 828.187 319.093 825.779 321.108C825.779 321.108 806.985 336.562 793.713 334.022C780.004 331.146 766.295 322.54 757.503 312.502C756.384 311.307 755.326 310.055 754.334 308.753C752.217 305.127 748.991 300.147 747.177 297.696C745.362 295.246 743.391 292.829 743.391 292.829C740.916 290.937 732.37 285.879 729.951 284.525C727.532 283.171 723.556 280.798 720.991 279.265C720.991 279.265 710.183 272.685 702.287 268.175C701.559 267.784 700.842 267.358 700.137 266.967C687.335 260.062 670.255 247.752 670.255 247.752C668.345 246.324 666.356 245.005 664.297 243.802L663.658 243.377L662.359 242.548C661.567 241.532 660.936 240.4 660.489 239.191L660.421 238.822C659.839 234.346 657.767 232.107 653.208 230.988C652.506 230.818 651.796 230.683 651.081 230.586L644.17 229.355C642.333 225.841 632.657 226.624 630.73 229.534C628.804 232.443 626.015 236.517 624.447 238.598L623.652 238.911C619.715 240.45 615.677 241.717 611.567 242.705L610.727 242.907C608.602 243.142 606.46 243.161 604.332 242.963L587.532 245.301C585.483 246.258 583.345 247.008 581.148 247.54L580.274 247.629C574.215 248.3 567.405 249.151 567.405 249.151C564.145 249.297 560.919 248.437 558.165 246.689L523.826 231.425C521.463 228.862 518.024 226.501 516.21 226.143L514.541 226.624L513.992 226.792C512.072 227.11 510.118 227.182 508.179 227.004C504.803 226.765 501.482 226.01 498.334 224.766L497.573 224.431C496.744 224.106 493.966 224.363 491.39 225.046L483.763 224.945C481.523 228.068 475.464 225.483 474.4 223.826C473.336 222.17 471.454 221.197 471.04 221.364C470.307 221.583 469.558 221.743 468.8 221.846L468.218 221.924L467.098 222.058C466.694 221.834 464.275 220.805 461.722 219.82L406.281 198.233C403.705 197.785 399.472 197.013 396.896 196.487L364.718 184.121C362.164 183.002 357.998 180.966 355.5 179.545L326.526 164.795C321.746 162.644 317.14 160.126 312.75 157.264C310.08 155.325 307.083 153.881 303.902 153L290.036 154.265C287.46 154.869 283.249 156.022 280.684 156.85C280.684 156.85 203.404 181.469 157.013 180.921H156.061C153.838 181.051 151.624 181.313 149.431 181.704L135.991 181.816C133.81 181.435 131.606 181.196 129.394 181.1H128.464C109.738 181.771 91.9075 183.875 76.149 189.762C69.5866 192.401 62.8508 194.589 55.989 196.308L55.1266 196.521C52.9827 196.821 50.8159 196.926 48.653 196.834L12.7568 204.668C10.1808 204.88 5.93602 205.104 3.34881 205.183C2.21849 205.12 1.09696 204.947 0 204.668L0 597.5H1920Z" fill="url(#paint1_radial_5_108)"/>
<defs>
<radialGradient id="paint0_radial_5_108" cx="0" cy="0" r="1" gradientUnits="userSpaceOnUse" gradientTransform="translate(953.095 34.2136) scale(942.746 933.91)">
<stop stop-color="#F39C00"/>
<stop offset="0.33" stop-color="#D86600"/>
<stop offset="0.81" stop-color="#B44811"/>
</radialGradient>
<radialGradient id="paint1_radial_5_108" cx="0" cy="0" r="1" gradientUnits="userSpaceOnUse" gradientTransform="translate(928.786 145.732) scale(1519.43 1047.54)">
<stop offset="0.01" stop-color="#C95C01"/>
<stop offset="0.09" stop-color="#C05702"/>
<stop offset="0.46" stop-color="#9E4104"/>
<stop offset="0.76" stop-color="#8A3405"/>
<stop offset="0.96" stop-color="#822F06"/>
</radialGradient>
</defs>
</svg>
