<svg width="360" height="423" viewBox="0 0 360 423" fill="none" xmlns="http://www.w3.org/2000/svg">
<path d="M360 17.872C359.876 17.8392 359.754 17.8064 359.637 17.7722C359.057 17.6009 358.305 17.2062 357.417 17.3253C356.902 17.3894 356.787 17.4117 356.787 17.4117C356.323 17.4958 355.881 17.6337 355.481 17.8198C355.133 17.9928 354.76 18.1386 354.368 18.2548C352.02 18.9652 349.069 18.5675 347.091 17.9181L346.833 17.8317C346.377 17.7279 345.899 17.683 345.422 17.6992C345.145 17.6986 344.869 17.6771 344.598 17.6351C343.166 17.446 342.051 17.0393 340.535 16.9351L340.295 16.9172C339.89 16.8802 339.479 16.8802 339.073 16.9172C339.073 16.9172 338.653 16.9485 337.973 17.0513C336.352 17.3 334.722 17.5368 332.889 17.4713C331.135 17.4102 329.453 17.3372 327.685 17.3223C325.881 17.306 324.052 17.2613 322.367 17.0244C321.457 16.8739 320.536 16.7576 319.608 16.6759C318.707 16.6178 318.214 16.7474 317.399 16.8412C315.662 17.0408 313.751 16.9425 311.939 16.9812C310.078 17.02 308.262 17.1108 306.439 17.2434C302.631 17.5189 298.776 17.7558 294.87 17.6039C291.111 17.4549 287.868 16.6774 284.08 16.6491C283.845 16.658 283.61 16.649 283.378 16.6223C282.909 16.47 282.399 16.3888 281.883 16.384H273.019C272.49 16.3814 271.961 16.353 271.438 16.2991C271.053 16.2544 269.909 16.1025 269.461 16.031C269.461 16.031 266.082 15.4918 263.753 15.3801C260.196 15.2445 256.582 15.2773 253.022 15.31C246.323 15.3711 235.046 14.4491 235.046 14.4491C234.574 14.4104 233.811 14.327 233.366 14.2644C233.366 14.2644 229.305 13.7103 227.906 13.2635C226.74 12.8747 224.645 12.8747 223.947 12.5396C223.589 12.3607 223.201 12.2141 222.792 12.1032C222.372 12.0108 221.721 11.8425 221.343 11.7308C221.194 11.6768 221.053 11.6119 220.923 11.5372C219.529 10.8133 216.501 10.3113 213.474 10.1445C210.679 9.9777 207.653 10.4245 205.324 10.5914C200.435 10.9816 190.141 10.8267 190.141 10.8267C189.564 10.8144 188.989 10.7761 188.419 10.712L185.916 10.4618C185.447 10.4097 184.677 10.3396 184.2 10.3054C184.2 10.3054 169.235 9.25382 165.277 7.63773C163.647 6.97044 158.401 6.10207 158.401 6.10207C157.956 6.0276 157.54 5.91886 157.477 5.85631C157.123 5.69247 156.733 5.57213 156.322 5.50032L149.096 4.20149C148.588 4.11788 148.09 4.00377 147.609 3.8604C147.435 3.81697 147.269 3.7579 147.116 3.68464C146.859 3.56102 146.399 3.34653 146.093 3.20652L142.071 2.16388C141.651 2.07601 140.952 1.93301 140.534 1.84067C140.534 1.84067 140.341 1.79747 140.03 1.74683L139.018 1.57554C138.708 1.45325 138.449 1.27622 138.264 1.06167C138.264 1.06167 138.218 0.996129 137.747 0.872502C137.17 0.716107 137.075 0.596947 137.075 0.596947C136.937 0.422678 136.485 0.255856 136.067 0.224577C135.649 0.193298 134.35 0.185854 133.967 0.28416L133.615 0.306501C131.466 0.445023 129.501 0.212665 127.443 0.0562693C125.802 -0.0703366 125.195 0.0562693 125.195 0.0562693C124.775 0.145638 124.089 0.296073 123.677 0.392889C123.347 0.465789 123.025 0.553858 122.711 0.65653C120.949 1.63512 119.916 1.25232 117.415 2.03877C115.288 2.70308 111.927 3.95424 109.046 4.26554C107.314 4.45173 105.732 5.04007 103.973 5.18902C102.274 5.33797 100.596 5.49883 98.8506 5.57331C95.4108 5.69432 91.9946 6.04339 88.6465 6.61594C85.5364 7.16109 82.2519 7.68688 78.663 7.75242C74.822 7.82391 70.5107 7.63922 66.991 8.26182C66.1216 8.41077 65.2312 8.59547 65.2312 8.59547C64.8112 8.68037 64.4563 8.80846 64.4605 8.87847C64.4647 8.94847 63.7171 9.10636 63.3958 9.2285C63.0744 9.35063 61.6422 9.67534 61.3482 9.82429C61.3482 9.82429 53.9456 13.4571 46.2616 13.6806C39.7515 13.8474 28.8208 12.1806 23.2326 12.7869C19.7403 13.1771 18.1107 14.3464 14.6225 15.0702C10.8971 15.7956 6.23919 16.1293 2.04963 16.5746C1.43852 16.6312 0.720311 16.6908 0 16.7474V422.5H360V17.872Z" fill="url(#paint0_radial_14_35)"/>
<defs>
<radialGradient id="paint0_radial_14_35" cx="0" cy="0" r="1" gradientUnits="userSpaceOnUse" gradientTransform="translate(181.352 6.17952) scale(183.2 129.938)">
<stop stop-color="#F7A400"/>
<stop offset="0.64" stop-color="#D86600"/>
</radialGradient>
</defs>
</svg>
