<svg width="360" height="468" viewBox="0 0 360 468" fill="none" xmlns="http://www.w3.org/2000/svg">
<path d="M360 43.0552L358.963 43.0174C358.483 43.001 358.005 42.9398 357.537 42.8346C357.255 42.7452 356.965 42.686 356.672 42.6581L356.378 42.635L355.794 42.5951C355.63 42.5824 355.21 42.5572 354.859 42.5383C354.508 42.5194 353.337 42.5026 352.852 42.5026C352.852 42.5026 348.696 42.5026 346.203 41.7776C344.645 41.3427 342.152 40.1848 339.349 39.752C339.065 39.7141 338.761 39.6742 338.387 39.6301L338.124 39.6868C337.868 39.7643 337.621 39.867 337.385 39.9936C336.919 40.2353 336.159 40.624 335.693 40.851L334.867 41.246C334.401 41.4729 333.798 41.8008 333.527 41.9752C333.257 42.1496 332.162 42.4101 331.677 42.4711L330.207 42.6497C329.724 42.7106 328.931 42.7947 328.445 42.8388C328.275 42.8679 328.116 42.9403 327.981 43.049C327.741 43.1848 327.475 43.2699 327.2 43.299C326.715 43.3515 325.921 43.3894 325.434 43.3852C324.93 43.3586 324.428 43.3011 323.93 43.2128C323.727 43.1757 323.529 43.1151 323.34 43.0321C323.13 42.9523 322.179 42.469 321.711 42.2441L321.35 42.0676C320.881 41.8407 320.266 41.515 319.98 41.3427C319.695 41.1704 318.779 40.4496 318.332 40.1302L316.232 38.6299C315.72 38.2501 315.24 37.8284 314.798 37.3691L314.674 37.3102C314.526 37.2572 314.374 37.2164 314.22 37.1884C313.639 37.0818 313.052 37.0054 312.462 36.9593L311.795 36.9131C311.293 36.8804 310.789 36.8917 310.289 36.9467C309.627 36.9887 308.962 36.9887 308.3 36.9467C308.3 36.9467 307.706 36.9047 306.603 36.3772C305.553 35.8771 304.489 35.377 303.208 35.6334C302.912 35.6964 299.31 39.2918 299.008 39.359C295.631 40.105 294.232 35.7868 292.515 33.5762C288.579 28.7936 287.685 26.4317 283.065 22.4244C282.934 22.311 282.796 22.1954 282.645 22.084C281.861 21.4536 281.118 20.9325 280.452 20.3861C280.29 20.2616 280.116 20.1525 279.934 20.0604C279.74 19.9533 278.783 19.5519 278.365 19.3229C277.947 19.0938 277.403 18.8102 277.155 18.6925C276.907 18.5748 276.59 17.3918 276.506 16.5785C276.506 16.5785 276.422 15.738 274.574 14.6201C274.364 14.4856 274.142 14.3637 273.93 14.2419C273.066 13.7502 273.018 13.7144 273.018 13.7144C272.573 13.3845 272.019 12.9769 271.783 12.8109C271.548 12.6449 271.363 12.5062 271.153 12.3696L270.962 12.2414C270.531 11.9671 270.116 11.6697 269.717 11.3504C269.284 10.9701 268.749 10.5099 268.526 10.325C268.326 10.1511 268.116 9.98965 267.896 9.84169L267.686 9.70511C267.059 9.29465 266.445 8.87438 265.843 8.44431C262.415 5.83657 259.513 1.78731 259.513 1.78731C259.137 1.26408 258.673 0.671508 258.509 0.473983C258.368 0.283499 258.185 0.128177 257.974 0.0200959L257.707 0.00328814C257.419 -0.00812205 257.13 0.0101817 256.846 0.0579183C255.248 0.297469 254.19 0.478183 254.19 0.478183C253.707 0.560135 253.026 0.661 252.68 0.703027C252.333 0.745053 251.546 0.799686 251.531 0.799686L251.254 0.9783C251.117 1.06866 250.985 1.15061 250.834 1.25357C250.683 1.35654 249.725 1.85876 249.278 2.18026L246.913 3.86132C246.475 4.17677 246.004 4.44578 245.51 4.66403C245.189 4.7838 244.282 5.12632 244.04 5.21247L243.286 5.33435C242.98 5.37638 242.675 5.4184 242.371 5.46463L226.369 7.81602C225.884 7.88746 225.235 7.96101 224.928 7.98202C224.639 8.0152 224.347 8.00528 224.061 7.9526L223.786 7.88536C221.864 7.40415 219.706 7.02172 219.706 7.02172C219.223 6.93556 218.586 6.82839 218.288 6.78426C218.021 6.73876 217.752 6.70789 217.482 6.6918L217.242 6.71492C216.056 6.82209 215.098 7.65631 215.098 7.65631C214.666 8.03245 214.118 8.48424 213.878 8.65655C213.655 8.83368 213.407 8.97543 213.141 9.07681L212.87 9.17768C211.704 9.61638 210.57 10.136 209.477 10.7327C209.015 10.9911 208.408 11.3631 208.13 11.5375C207.853 11.7119 206.936 12.4915 206.507 12.8781C206.507 12.8781 204.535 14.6621 203.074 16.1583C202.914 16.3243 202.796 16.4693 202.654 16.6416C202.261 17.0685 201.809 17.4371 201.312 17.7364L196.902 19.8713C196.453 20.0967 195.989 20.2877 195.512 20.4429C195.268 20.496 195.032 20.5778 194.808 20.6866L194.632 20.7917L193.93 21.212C193.464 21.4221 192.819 21.6911 192.5 21.8172C192.181 21.9432 191.074 22.3341 190.598 22.5127L186.482 24.0509C186.005 24.2295 185.348 24.4564 185.012 24.5573C184.676 24.6581 183.691 24.883 183.399 24.967C183.107 25.0511 182.618 25.1772 182.311 25.2423C182.023 25.2949 181.741 25.3787 181.471 25.4924L181.213 25.6121C180.952 25.734 180.77 25.8391 180.547 25.9673C180.324 26.0954 179.411 26.7532 178.968 27.0873C178.968 27.0873 177.078 28.5036 175.539 29.6887C175.364 29.8211 175.221 29.9325 175.051 30.0649C174.585 30.3785 174.07 30.6128 173.527 30.7583L168.18 31.5988C167.71 31.6734 167.235 31.71 166.758 31.7081C166.46 31.6934 166.219 31.6787 165.973 31.6556L165.763 31.5904L165.133 31.4013C164.803 31.3509 164.278 31.2815 163.963 31.25C163.664 31.2087 163.361 31.196 163.058 31.2122L162.752 31.2332C160.887 31.3656 157.292 31.187 157.292 31.187C156.703 31.1656 156.114 31.1852 155.528 31.2458C155.528 31.2458 146.674 32.2965 141.8 32.7041L141.59 32.7209C141.38 32.6558 140.849 32.805 140.387 33.0571C140.387 33.0571 137.657 34.5449 135.807 35.2047C131.065 36.8963 126.182 37.016 121.371 35.8708C118.714 35.2036 116.131 34.268 113.662 33.0782C111.478 32.059 109.235 31.9203 106.961 32.2733C102.562 32.9563 97.9312 35.4253 93.4792 34.7151C89.2246 34.028 85.6126 30.4053 81.4147 29.4239C77.4247 28.4889 73.1344 26.335 69.0877 27.9068C66.8092 28.7893 64.726 30.3254 62.3677 30.794C60.3862 31.1648 58.3734 31.3421 56.3576 31.3235C53.993 31.3362 51.5444 31.2101 49.2176 31.9771C47.0924 32.6768 45.0575 33.7632 43.0394 34.9546C40.8827 36.2259 38.6294 37.9217 36.3026 38.4197C34.1774 38.8757 31.9241 38.7202 29.8682 39.6952C27.7535 40.6955 25.7249 41.91 23.543 42.5719C21.653 43.1456 19.7777 43.8327 17.8857 44.3749C14.0028 45.5012 9.62848 46.535 5.78129 44.585C3.82619 43.5932 2.05589 42.0634 0 41.4919V219H360V43.0552Z" fill="url(#paint0_radial_14_32)"/>
<path d="M360 468V82.6529L350.846 79.5055C350.367 79.2957 349.074 78.9558 348.731 79.0229C348.216 79.1549 347.718 79.3465 347.247 79.5936L334.647 86.8222C334.179 87.0673 333.677 87.2392 333.158 87.332L332.847 87.2712C332.64 87.2254 332.429 87.2029 332.217 87.204H332.112C331.996 87.2376 331.509 87.4013 331.028 87.5712L321.091 89.1366C320.606 89.1366 320.056 89.1366 319.869 89.1198H319.701C315.952 89.019 312.294 88.8806 308.869 89.9066C305.317 91.0864 301.637 91.8387 297.907 92.1476L297.733 92.1665C297.535 92.179 296.977 92.179 296.492 92.1665C296.492 92.1665 296.456 92.1664 295.962 92.0972C295.078 91.9217 294.161 92.0589 293.367 92.4854L287.907 93.9794C287.516 94.1106 287.115 94.2102 286.708 94.2773H286.544C284.576 94.3612 282.678 94.1367 281.149 93.4842C275.857 91.3334 265.527 89.7933 265.527 89.7933C264.918 89.6753 264.331 89.4629 263.788 89.1638L261.93 88.0832C261.455 87.8083 260.934 87.5251 260.89 87.502C260.846 87.4789 260.47 87.2922 260.075 87.0635L259.699 86.925L259.576 86.8788C259.202 86.8153 258.823 86.7879 258.444 86.797C258.017 86.7919 257.59 86.7547 257.169 86.6858L257.053 86.6669C256.684 86.5152 256.324 86.3407 255.976 86.1444L253.54 84.9316C253.155 84.7282 252.755 84.5523 252.345 84.405L252.177 84.3672C249.844 83.8615 247.404 83.8783 244.991 84.2098L244.829 84.2329C244.425 84.2312 244.022 84.1761 243.632 84.0692C243.632 84.0692 242.091 83.6916 241.219 83.6978H241.098C240.967 83.7146 240.468 83.851 239.985 83.9979L237.945 85.3702C237.477 85.687 236.99 85.9996 236.86 86.0668L236.738 86.1276C235.898 86.5473 234.984 86.9942 234.984 86.9942C234.508 87.2229 234.016 87.4621 233.888 87.5272L233.771 87.5943C232.582 88.2637 230.633 89.2289 230.633 89.2289C230.073 89.4922 229.489 89.7029 228.89 89.8584L227.788 90.1269L227.622 90.1647C227.453 90.1987 227.279 90.2086 227.107 90.1941C227.059 90.1941 226.624 90.1941 226.139 90.2067C225.55 90.231 224.964 90.3061 224.388 90.4312L224.268 90.4627C223.898 90.6455 223.539 90.8479 223.191 91.0691C222.319 91.598 221.406 92.0562 220.461 92.4392L220.329 92.4875C220.184 92.542 219.675 92.8001 219.201 93.0561C218.903 93.1865 218.579 93.2468 218.254 93.2324C216.952 93.2205 215.652 93.3521 214.379 93.6248L214.224 93.6604C213.821 93.8207 213.431 94.0144 213.06 94.2395L211.017 96.1532C210.545 96.4511 210.118 96.8057 210.064 96.9358L210.013 97.0512C209.709 97.7331 208.921 97.9703 208.921 97.9703C208.44 98.115 207.97 98.3291 207.871 98.4466L207.796 98.562L207.586 98.9082C207.407 99.3278 207.214 99.7769 207.195 99.8146C207.176 99.8524 206.79 100.234 206.336 100.654C206.336 100.654 204.555 102.318 202.999 103.273L202.579 103.516C196.878 106.873 190.92 110.478 183.889 110.751H183.717C183.299 110.713 182.885 110.635 182.482 110.518C182.028 110.383 181.607 110.153 181.247 109.844C180.38 109.06 179.273 109.465 179.273 109.465C178.902 109.606 178.518 109.711 178.127 109.777C177.784 109.677 177.447 109.557 177.119 109.416L170.974 107.629C170.585 107.574 170.199 107.495 169.819 107.394C169.744 107.36 169.3 107.075 168.832 106.764L156.545 103.09C156.062 102.928 155.285 103.109 154.833 103.487C154.833 103.487 151.31 106.384 148.821 105.908C146.251 105.369 143.68 103.755 142.032 101.873C141.822 101.649 141.624 101.414 141.438 101.17C141.041 100.49 140.436 99.5565 140.096 99.097C139.755 98.6375 139.386 98.1843 139.386 98.1843C138.922 97.8297 137.319 96.8813 136.866 96.6274C136.412 96.3735 135.667 95.9286 135.186 95.6412C135.186 95.6412 133.159 94.4074 131.679 93.5618C131.542 93.4884 131.408 93.4086 131.276 93.3352C128.875 92.0406 125.673 89.7325 125.673 89.7325C125.315 89.4646 124.942 89.2174 124.556 88.9918L124.436 88.912L124.192 88.7568C124.044 88.5662 123.925 88.3539 123.842 88.1273L123.829 88.058C123.72 87.2187 123.331 86.7991 122.477 86.5893C122.345 86.5573 122.212 86.5321 122.078 86.5137L120.782 86.2829C120.438 85.6241 118.623 85.7709 118.262 86.3165C117.901 86.862 117.378 87.6258 117.084 88.0161L116.935 88.0748C116.197 88.3633 115.439 88.6009 114.669 88.7861L114.511 88.8239C114.113 88.8681 113.711 88.8716 113.312 88.8344L110.162 89.2729C109.778 89.4523 109.377 89.5929 108.965 89.6926L108.801 89.7094C107.665 89.8353 106.388 89.9947 106.388 89.9947C105.777 90.0221 105.172 89.8609 104.656 89.5331L98.2173 86.6711C97.7742 86.1906 97.1295 85.7478 96.7893 85.6807L96.4764 85.7709L96.3735 85.8024C96.0134 85.8621 95.6471 85.8755 95.2836 85.8423C94.6505 85.7974 94.028 85.6558 93.4377 85.4226L93.2949 85.3597C93.1395 85.2988 92.6187 85.3471 92.1357 85.4751L90.7056 85.4562C90.2856 86.0416 89.1495 85.5569 88.95 85.2464C88.7505 84.9358 88.3977 84.7533 88.32 84.7847C88.1825 84.8257 88.0421 84.8558 87.9 84.875L87.7908 84.8897L87.5808 84.9148C87.5052 84.8729 87.0516 84.6798 86.5728 84.4952L76.1777 80.4476C75.6947 80.3637 74.9009 80.2189 74.4179 80.1203L68.3846 77.8017C67.9058 77.5919 67.1246 77.21 66.6563 76.9435L61.2236 74.178C60.3273 73.7748 59.4637 73.3026 58.6406 72.7659C58.1399 72.4023 57.578 72.1315 56.9816 71.9664L54.3818 72.2035C53.8988 72.3168 53.1092 72.533 52.6283 72.6882C52.6283 72.6882 38.1382 77.3044 29.44 77.2016H29.2615C28.8446 77.2261 28.4294 77.2751 28.0183 77.3485L25.4983 77.3695C25.0893 77.298 24.6762 77.2531 24.2614 77.2352H24.0871C20.5759 77.3611 17.2327 77.7556 14.2779 78.8592C13.0475 79.3542 11.7845 79.7643 10.4979 80.0867L10.3362 80.1266C9.93426 80.183 9.52798 80.2026 9.12243 80.1853L2.39191 81.6541C1.90891 81.694 1.113 81.736 0.627902 81.7507C0.415968 81.7389 0.20568 81.7065 0 81.6541L0 468H360Z" fill="url(#paint1_radial_14_32)"/>
<defs>
<radialGradient id="paint0_radial_14_32" cx="0" cy="0" r="1" gradientUnits="userSpaceOnUse" gradientTransform="translate(178.705 6.41504) scale(176.765 175.108)">
<stop stop-color="#F39C00"/>
<stop offset="0.33" stop-color="#D86600"/>
<stop offset="0.81" stop-color="#B44811"/>
</radialGradient>
<radialGradient id="paint1_radial_14_32" cx="0" cy="0" r="1" gradientUnits="userSpaceOnUse" gradientTransform="translate(174.147 70.6038) scale(284.893 196.413)">
<stop offset="0.01" stop-color="#C95C01"/>
<stop offset="0.09" stop-color="#C05702"/>
<stop offset="0.46" stop-color="#9E4104"/>
<stop offset="0.76" stop-color="#8A3405"/>
<stop offset="0.96" stop-color="#822F06"/>
</radialGradient>
</defs>
</svg>
