<svg width="1920" height="729" viewBox="0 0 1920 729" fill="none" xmlns="http://www.w3.org/2000/svg">
<path d="M1920 134.777C1919.34 134.53 1918.69 134.282 1918.06 134.024C1914.97 132.732 1910.96 129.756 1906.22 130.654C1903.48 131.137 1902.86 131.306 1902.86 131.306C1900.39 131.94 1898.03 132.98 1895.9 134.384C1894.04 135.688 1892.05 136.787 1889.96 137.663C1877.44 143.021 1861.7 140.022 1851.15 135.125L1849.77 134.473C1847.35 133.69 1844.8 133.352 1842.25 133.474C1840.77 133.469 1839.3 133.307 1837.86 132.991C1830.22 131.564 1824.27 128.498 1816.19 127.711L1814.91 127.577C1812.74 127.298 1810.55 127.298 1808.39 127.577C1808.39 127.577 1806.15 127.812 1802.52 128.588C1793.87 130.463 1785.18 132.249 1775.41 131.755C1766.05 131.295 1757.08 130.744 1747.65 130.632C1738.03 130.508 1728.28 130.171 1719.29 128.385C1714.44 127.25 1709.52 126.373 1704.58 125.757C1699.77 125.319 1697.14 126.296 1692.79 127.004C1683.53 128.509 1673.34 127.768 1663.67 128.06C1653.75 128.352 1644.06 129.037 1634.34 130.037C1614.03 132.115 1593.47 133.901 1572.64 132.755C1552.59 131.632 1535.3 125.768 1515.09 125.555C1513.84 125.622 1512.59 125.554 1511.35 125.353C1508.85 124.204 1506.13 123.592 1503.38 123.555H1456.1C1453.28 123.536 1450.46 123.322 1447.67 122.915C1445.62 122.578 1439.51 121.432 1437.13 120.893C1437.13 120.893 1419.11 116.827 1406.69 115.985C1387.71 114.962 1368.44 115.21 1349.45 115.457C1313.72 115.917 1253.58 108.964 1253.58 108.964C1251.06 108.672 1246.99 108.043 1244.62 107.571C1244.62 107.571 1222.96 103.393 1215.5 100.023C1209.28 97.0915 1198.1 97.0915 1194.39 94.5642C1192.48 93.2152 1190.41 92.1096 1188.23 91.273C1185.99 90.5766 1182.51 89.3073 1180.5 88.4649C1179.7 88.0572 1178.95 87.5679 1178.26 87.0047C1170.82 81.5457 1154.67 77.7603 1138.53 76.5023C1123.62 75.2442 1107.48 78.614 1095.06 79.872C1068.99 82.8149 1014.09 81.6468 1014.09 81.6468C1011.01 81.5538 1007.94 81.2649 1004.9 80.7819L991.551 78.8948C989.053 78.5017 984.943 77.9737 982.4 77.7154C982.4 77.7154 902.588 69.7852 881.476 57.5979C872.784 52.5658 844.806 46.0172 844.806 46.0172C842.432 45.4556 840.214 44.6356 839.878 44.1638C837.99 42.9283 835.907 42.0207 833.718 41.4792L795.178 31.6845C792.467 31.0539 789.814 30.1934 787.249 29.1122C786.319 28.7846 785.434 28.3392 784.617 27.7868C783.25 26.8545 780.797 25.237 779.162 24.1811L757.714 16.3184C755.474 15.6556 751.744 14.5773 749.515 13.8809C749.515 13.8809 748.485 13.5551 746.827 13.1732L741.429 11.8815C739.778 10.9593 738.392 9.6243 737.408 8.0063C737.408 8.0063 737.161 7.51205 734.653 6.57975C731.573 5.40033 731.069 4.50172 731.069 4.50172C730.329 3.18751 727.921 1.92947 725.693 1.69359C723.464 1.4577 716.531 1.40157 714.492 2.14292L712.611 2.3114C701.153 3.35602 690.67 1.60376 679.693 0.42434C670.946 -0.530425 667.709 0.42434 667.709 0.42434C665.469 1.09829 661.807 2.23275 659.612 2.96287C657.853 3.51263 656.132 4.17678 654.459 4.95105C645.062 12.3308 639.552 9.44406 626.213 15.3748C614.867 20.3845 596.947 29.8199 581.58 32.1675C572.34 33.5715 563.906 38.0084 554.52 39.1316C545.459 40.2549 536.51 41.468 527.203 42.0296C508.858 42.9422 490.638 45.5746 472.782 49.8924C456.194 54.0035 438.677 57.9686 419.536 58.4628C399.051 59.002 376.057 57.6092 357.285 62.3044C352.649 63.4276 347.9 64.8204 347.9 64.8204C345.66 65.4607 343.767 66.4267 343.789 66.9546C343.812 67.4825 339.824 68.6732 338.111 69.5943C336.397 70.5153 328.759 72.964 327.191 74.0873C327.191 74.0873 287.71 101.483 246.729 103.168C212.008 104.426 153.711 91.8571 123.907 96.4288C105.282 99.3717 96.5903 108.189 77.9868 113.648C58.1177 119.119 33.2757 121.635 10.9314 124.993C7.67211 125.42 3.84166 125.869 0 126.296V731.5H1920V134.777Z" fill="url(#paint0_radial_4_5693)"/>
<defs>
<radialGradient id="paint0_radial_4_5693" cx="0" cy="0" r="1" gradientUnits="userSpaceOnUse" gradientTransform="translate(967.213 46.6013) scale(977.069 979.892)">
<stop stop-color="#F7A400"/>
<stop offset="0.64" stop-color="#D86600"/>
</radialGradient>
</defs>
</svg>
